<?xml version="1.0" encoding="utf-8"?>
<!-- Generator: Adobe Illustrator 22.1.0, SVG Export Plug-In . SVG Version: 6.00 Build 0)  -->
<svg version="1.1" id="Layer_1" xmlns="http://www.w3.org/2000/svg" xmlns:xlink="http://www.w3.org/1999/xlink" x="0px" y="0px"
	 width="536.1px" height="500px" viewBox="0 0 536.1 500" style="enable-background:new 0 0 536.1 500;" xml:space="preserve">
<style type="text/css">
	.st0{fill:#E0EAF2;}
	.st1{fill:#E8C68C;}
	.st2{opacity:0.2;fill:#FFFFFF;}
	.st3{fill:#FEE8E0;}
	.st4{opacity:0.1;}
	.st5{fill:#1A1A1A;}
	.st6{opacity:0.5;fill:#231F20;}
	.st7{fill:#FFFFFF;}
	.st8{fill:#A2B2C2;}
	.st9{fill:#C2D4E7;}
	.st10{opacity:0.5;fill:#FFFFFF;}
	.st11{fill:#F89C5B;}
	.st12{fill:#FCC493;}
	.st13{fill:#7D7897;}
	.st14{fill:#88959E;}
	.st15{opacity:0.7;fill:#FFFFFF;}
	.st16{fill-rule:evenodd;clip-rule:evenodd;fill:#CACBCC;}
	.st17{fill-rule:evenodd;clip-rule:evenodd;fill:#88959E;}
	.st18{fill:#DA1F27;}
</style>
<g>
	<g>
		<circle class="st0" cx="2960.6" cy="23" r="110.7"/>
	</g>
	<g>
		
			<ellipse transform="matrix(0.9708 -0.2401 0.2401 0.9708 62.781 724.973)" class="st1" cx="3006.8" cy="104.8" rx="8.9" ry="10.7"/>
		<path class="st1" d="M3014.3,79.5c-1.6,1.9-2.9,4.2-3.9,6.6c-4.9,12.7,1.4,27.1,14.1,32c12.7,4.9,27.1-1.4,32-14.1
			c1-2.5,1.5-5,1.6-7.5l0.6-19.4c6-2.5,11-7.3,13.6-13.9c0.4-1,0.7-2.1,1-3.1c0.1,0,0.1,0.1,0.2,0.1c5.7,2.2,12.2-0.6,14.4-6.3
			c2.2-5.7-0.6-12.2-6.3-14.4c-3.9-1.5-8.2-0.7-11.2,1.9c-2.7-4.5-6.9-8.1-12.1-10.1c-5.2-2-10.8-2.1-15.8-0.7c-0.5-3.9-3.1-7.4-7-9
			c-5.7-2.2-12.2,0.6-14.4,6.3c-2.2,5.7,0.6,12.2,6.3,14.4c0.1,0,0.2,0,0.2,0.1c-0.5,0.9-1,1.9-1.4,3c-2.5,6.5-2.1,13.5,0.7,19.4
			L3014.3,79.5z"/>
		
			<ellipse transform="matrix(0.9708 -0.2401 0.2401 0.9708 62.781 724.973)" class="st2" cx="3006.8" cy="104.8" rx="8.9" ry="10.7"/>
		
			<ellipse transform="matrix(0.8325 -0.554 0.554 0.8325 443.4978 1708.5586)" class="st1" cx="3047.7" cy="120.7" rx="10.7" ry="8.9"/>
		
			<ellipse transform="matrix(0.8325 -0.554 0.554 0.8325 443.4978 1708.5586)" class="st2" cx="3047.7" cy="120.7" rx="10.7" ry="8.9"/>
		<g>
			<path class="st3" d="M3026.7,63.5l-2.5,0.9c-0.6,0.2-0.9,0.9-0.7,1.5l9,31.7l17.5-1L3026.7,63.5z"/>
		</g>
		<g class="st4">
			<path class="st5" d="M3026.7,63.5l-2.5,0.9c-0.6,0.2-0.9,0.9-0.7,1.5l9,31.7l17.5-1L3026.7,63.5z"/>
		</g>
		<path class="st1" d="M3057.9,85l-24.7-2.4c-4.2-0.4-8.2,2.5-8.7,6.6c-0.6,4.3,2.6,8.2,6.9,8.7l21.8,2.2c3.7,0.4,7-2.3,7.3-6
			L3057.9,85z"/>
		<path class="st2" d="M3057.9,85l-24.7-2.4c-4.2-0.4-8.2,2.5-8.7,6.6c-0.6,4.3,2.6,8.2,6.9,8.7l21.8,2.2c3.7,0.4,7-2.3,7.3-6
			L3057.9,85z"/>
		<path class="st3" d="M3059.2,74.7l2.9,20.3c0.2,3.6-2.8,6.5-6.4,6.2l-23.4-2.2c-0.5,0-0.7-0.7-0.3-1l24.7-21.2L3059.2,74.7z"/>
		<circle class="st1" cx="3049.4" cy="54.3" r="24.7"/>
		<circle class="st2" cx="3045" cy="65.6" r="10.2"/>
		<circle class="st6" cx="3047.4" cy="59.4" r="3.5"/>
		<circle class="st6" cx="3060.5" cy="59.5" r="2.4"/>
		<circle class="st6" cx="3037.7" cy="50.6" r="2.4"/>
	</g>
	<path class="st7" d="M2923,9.1L2923,9.1l7.1-40l0,0c0.5-2.7,0.5-5.6-0.2-8.5c-2.6-11.1-13.6-17.9-24.7-15.4
		c-4.8,1.1-8.8,3.9-11.6,7.5l2.2,3.9c0.6,1.1,0.2,2.5-1,3l-1.6,0.7c-1.1,0.5-1.6,1.8-1,2.9l3.7,7.7c0.4,0.8,0.2,1.8-0.4,2.4
		l-0.3,0.3c-0.6,0.6-0.7,1.4-0.5,2.2l2.1,7.2l-4.1-7.6c-0.4-0.7-0.4-1.5,0.1-2.2l0.2-0.3c0.5-0.7,0.5-1.6,0-2.3l-5.9-9.7
		c-0.6-0.9-0.4-2.1,0.5-2.8l1.4-1.1c0.6-0.5,0.9-1.3,0.8-2.1c-4.5-2.9-10.1-4-15.7-2.7c-11.1,2.6-17.9,13.6-15.4,24.7
		c0.7,2.9,1.9,5.5,3.6,7.7l0,0l24,32.8l0,0c1.6,2.4,4.6,3.7,7.6,3c3.9-0.9,6.3-4.8,5.4-8.6c0,0,0,0,0,0l-2.3-9.7
		c-0.6-2.7,1-5.4,3.7-6c2.7-0.6,5.4,1,6,3.7l2.3,9.7v0c0.9,3.9,4.8,6.3,8.6,5.4C2920.5,14.5,2922.6,12,2923,9.1z"/>
	<g>
		<path class="st0" d="M3025.7-27.2c-0.6,0-4.3,2.7-4.2,2.7s7.4,7.4,7.4,7.4l3.3-1.5l6.1,7.4l8.3-5.8l-6.3-7.4L3025.7-27.2z"/>
		<g>
			<path class="st8" d="M3033.6-9.1l13.1-11.3c0.7-0.6,1.7-0.5,2.3,0.2l0,0c0.6,0.7,0.5,1.7-0.2,2.3l-13.1,11.3
				c-0.7,0.6-1.7,0.5-2.3-0.2l0,0C3032.9-7.5,3033-8.5,3033.6-9.1z"/>
			<path class="st8" d="M3022.3-13l22.2-19.2c0.7-0.6,1.7-0.5,2.3,0.2l0,0c0.6,0.7,0.5,1.7-0.2,2.3l-22.2,19.2
				c-0.7,0.6-1.7,0.5-2.3-0.2v0C3021.6-11.4,3021.6-12.5,3022.3-13z"/>
			<g>
				
					<rect x="3032.5" y="-18.2" transform="matrix(0.757 -0.6534 0.6534 0.757 746.9708 1979.3051)" class="st9" width="4" height="7.2"/>
				
					<rect x="3034.9" y="-22.4" transform="matrix(0.757 -0.6534 0.6534 0.757 750.8766 1981.4515)" class="st10" width="8.8" height="7.2"/>
			</g>
			<path class="st8" d="M2987.7-73.6L2976-87.2c-0.4-0.5-0.4-1.2,0.1-1.6l0,0c0.5-0.4,1.2-0.4,1.6,0.1l11.7,13.6L2987.7-73.6z"/>
			<g>
				<path class="st9" d="M2993.1-65.6l-4.5-5.2c-1-1.1-0.8-2.8,0.3-3.8l-3,2.6c-1.1,1-1.2,2.6-0.3,3.8l4.5,5.2L2993.1-65.6z"/>
				<path class="st0" d="M2988.6-70.8l4.5,5.2l6.7-5.7l-4.5-5.2c-1-1.1-2.6-1.2-3.8-0.3l-2.6,2.3C2987.7-73.6,2987.6-72,2988.6-70.8
					z"/>
				<path class="st10" d="M2988.6-70.8l4.5,5.2l6.7-5.7l-4.5-5.2c-1-1.1-2.6-1.2-3.8-0.3l-2.6,2.3
					C2987.7-73.6,2987.6-72,2988.6-70.8z"/>
			</g>
			<g>
				
					<rect x="3009.8" y="-53.1" transform="matrix(0.757 -0.6534 0.6534 0.757 753.3644 1960.9308)" class="st9" width="6.4" height="41.4"/>
				<path class="st11" d="M3001.9-50.1l-11.8-13.7c-1.7-1.9-1.4-4.8,0.5-6.5l-4.8,4.2c-1.9,1.7-2.1,4.5-0.5,6.5L2997-46L3001.9-50.1
					z"/>
				
					<rect x="3013.2" y="-61.1" transform="matrix(0.757 -0.6534 0.6534 0.757 760.8525 1965.0471)" class="st10" width="18.1" height="41.4"/>
				<path class="st12" d="M2990.1-63.8l11.8,13.7l13.7-11.8l-11.8-13.7c-1.7-1.9-4.5-2.1-6.5-0.5l-6.8,5.8
					C2988.6-68.6,2988.4-65.7,2990.1-63.8z"/>
			</g>
		</g>
	</g>
	<g>
		<path class="st13" d="M3005.8,97.1h-85.6c-3.4,0-6.2-2.8-6.2-6.2V-35.4c0-3.4,2.8-6.2,6.2-6.2h85.6c3.4,0,6.2,2.8,6.2,6.2V90.9
			C3012,94.3,3009.2,97.1,3005.8,97.1z"/>
		<rect x="2923.1" y="-33.3" class="st7" width="80.6" height="121.9"/>
		<g>
			<g>
				<path class="st14" d="M2911.4,83.8c-1,1.2-1.8,2.6-2.4,4.2c-2.2-2.3-5.1-4-8.4-4.7c-1.2-0.3-2.5-0.4-3.7-0.4c-2,0-4,0.4-5.9,1.1
					c0.1-1.6,0-3.2-0.4-4.8c3.5-1.1,7.2-1.3,11-0.4C2905.4,79.6,2908.7,81.4,2911.4,83.8z"/>
				<circle class="st15" cx="2924.7" cy="94.3" r="16.9"/>
				<path class="st14" d="M2878.8,61.9c-11.6-2.6-23.2,4.7-25.8,16.3s4.7,23.2,16.3,25.8s23.2-4.7,25.8-16.3
					S2890.4,64.5,2878.8,61.9z M2890.6,86.6c-2.1,9.1-11.1,14.8-20.2,12.8c-9.1-2.1-14.8-11.1-12.8-20.2
					c2.1-9.1,11.1-14.8,20.2-12.8C2886.9,68.5,2892.6,77.5,2890.6,86.6z"/>
				<path class="st14" d="M2929.4,73.3c-11.6-2.6-23.2,4.7-25.8,16.3s4.7,23.2,16.3,25.8c11.6,2.6,23.2-4.7,25.8-16.3
					C2948.3,87.4,2941,75.9,2929.4,73.3z M2941.2,98c-2.1,9.1-11.1,14.8-20.2,12.8c-9.1-2.1-14.8-11.1-12.8-20.2
					s11.1-14.8,20.2-12.8C2937.5,79.9,2943.2,88.9,2941.2,98z"/>
				<path class="st14" d="M2855,76.2l-2.3-0.5c-1.3-0.3-2.5,0.5-2.8,1.8v0c-0.3,1.3,0.5,2.5,1.8,2.8l2.3,0.5L2855,76.2z"/>
				<path class="st14" d="M2944.2,100.7l2.3,0.5c1.3,0.3,2.5-0.5,2.8-1.8l0,0c0.3-1.3-0.5-2.5-1.8-2.8l-2.3-0.5L2944.2,100.7z"/>
			</g>
			<circle class="st15" cx="2874.1" cy="82.9" r="16.9"/>
		</g>
		<path class="st16" d="M2977.2-40c-1-4.3-4.1-8.2-8.6-10c-6.6-2.7-14.4-0.2-18,6c-0.8,1.3-1.3,2.6-1.6,4c-0.5,2-2.2,3.4-4.3,3.4
			h-8.8v13.7h53.7v-13.7h-8.1C2979.5-36.7,2977.7-38.1,2977.2-40"/>
		<circle class="st17" cx="2963.1" cy="-38.4" r="6.1"/>
	</g>
	<path id="d_7_" class="st18" d="M2967.9-1.1v17.7c-2.6-1.2-5.6-1.9-8.6-1.9c-11.5,0-20.8,9.4-20.8,20.9c0,11.5,9.4,20.8,20.9,20.8
		h0c3,0,5.9-0.6,8.6-1.9V56h14.5V-1.1H2967.9z M2959.2,56.2L2959.2,56.2L2959.2,56.2L2959.2,56.2z"/>
	<path id="Hjerte_7_" class="st7" d="M2960.3,43.7c-1.1-1.9-4.4-3.9-4.4-3.9c-6-3.2-5.5-7-5.5-7c0.4-5.4,5.1-5.3,5.1-5.3
		c3.3,0,4.8,2.7,4.8,2.7h0.1c0,0,1.5-2.7,4.8-2.7c0,0,4.7-0.2,5.1,5.3c0,0,0.5,3.8-5.5,7.1C2964.7,39.8,2961.4,41.9,2960.3,43.7"/>
	<path class="st1" d="M3017.3,80.4l-11.3-5.7c-3.9-2-5.5-6.7-3.6-10.6c2-3.9,6.7-5.5,10.6-3.6l10.3,5.2l0.7,2.5"/>
</g>
<g>
	<g>
		<circle class="st0" cx="248.4" cy="251.6" r="248.4"/>
	</g>
	<g>
		
			<ellipse transform="matrix(0.9708 -0.2401 0.2401 0.9708 -94.1782 97.2753)" class="st1" cx="352.1" cy="435.2" rx="19.9" ry="23.9"/>
		<path class="st1" d="M369,378.4c-3.5,4.4-6.5,9.3-8.6,14.9c-11.1,28.6,3.1,60.8,31.6,71.9c28.6,11.1,60.8-3.1,71.9-31.6
			c2.1-5.5,3.3-11.2,3.7-16.8l1.4-43.5c13.5-5.6,24.8-16.4,30.5-31.1c0.9-2.3,1.6-4.7,2.2-7.1c0.2,0.1,0.3,0.2,0.5,0.2
			c12.8,5,27.3-1.4,32.3-14.2c5-12.8-1.4-27.3-14.2-32.3c-8.8-3.4-18.4-1.5-25.2,4.2c-6.1-10-15.4-18.2-27.2-22.8
			c-11.8-4.6-24.1-4.8-35.4-1.6c-1.1-8.8-6.9-16.7-15.7-20.1c-12.8-5-27.3,1.4-32.3,14.2c-5,12.8,1.4,27.3,14.2,32.3
			c0.2,0.1,0.3,0.1,0.5,0.2c-1.2,2.1-2.3,4.3-3.2,6.7c-5.7,14.7-4.7,30.3,1.5,43.6L369,378.4z"/>
		
			<ellipse transform="matrix(0.9708 -0.2401 0.2401 0.9708 -94.1782 97.2753)" class="st2" cx="352.1" cy="435.2" rx="19.9" ry="23.9"/>
		
			<ellipse transform="matrix(0.8325 -0.554 0.554 0.8325 -186.4843 324.8194)" class="st1" cx="444" cy="470.9" rx="23.9" ry="19.9"/>
		
			<ellipse transform="matrix(0.8325 -0.554 0.554 0.8325 -186.4843 324.8194)" class="st2" cx="444" cy="470.9" rx="23.9" ry="19.9"/>
		<g>
			<path class="st3" d="M396.7,342.4l-5.6,2.1c-1.3,0.5-2,1.9-1.7,3.3l20.1,71.2l39.2-2.2L396.7,342.4z"/>
		</g>
		<g class="st4">
			<path class="st5" d="M396.7,342.4l-5.6,2.1c-1.3,0.5-2,1.9-1.7,3.3l20.1,71.2l39.2-2.2L396.7,342.4z"/>
		</g>
		<path class="st1" d="M466.7,390.7l-55.5-5.5c-9.4-0.9-18.4,5.5-19.6,14.9c-1.3,9.7,5.8,18.5,15.5,19.4l48.9,4.8
			c8.3,0.8,15.6-5.2,16.4-13.5L466.7,390.7z"/>
		<path class="st2" d="M466.7,390.7l-55.5-5.5c-9.4-0.9-18.4,5.5-19.6,14.9c-1.3,9.7,5.8,18.5,15.5,19.4l48.9,4.8
			c8.3,0.8,15.6-5.2,16.4-13.5L466.7,390.7z"/>
		<path class="st3" d="M469.8,367.6l6.6,45.6c0.5,8-6.4,14.6-14.4,13.9l-52.6-4.9c-1.1-0.1-1.6-1.5-0.7-2.3l55.4-47.6L469.8,367.6z"
			/>
		<circle class="st1" cx="447.7" cy="321.8" r="55.5"/>
		<circle class="st2" cx="437.8" cy="347.2" r="22.9"/>
		<circle class="st6" cx="443.3" cy="333.2" r="7.9"/>
		<circle class="st6" cx="472.7" cy="333.4" r="5.3"/>
		<circle class="st6" cx="421.4" cy="313.4" r="5.3"/>
	</g>
	<path class="st7" d="M164.1,220.3L164.1,220.3l15.9-89.8l0,0c1.2-6.2,1.1-12.6-0.4-19.1c-5.8-24.8-30.6-40.3-55.4-34.5
		c-10.8,2.5-19.8,8.7-26.1,16.9l4.9,8.9c1.4,2.5,0.4,5.6-2.2,6.8l-3.6,1.7c-2.5,1.1-3.5,4.1-2.3,6.5l8.4,17.4c0.9,1.8,0.5,4-0.9,5.5
		l-0.6,0.6c-1.2,1.3-1.7,3.2-1.1,4.9l4.7,16.2l-9.2-17c-0.9-1.6-0.8-3.5,0.2-5l0.4-0.6c1-1.6,1-3.6,0.1-5.2l-13.3-21.7
		c-1.3-2.1-0.8-4.8,1.1-6.4l3-2.4c1.4-1.1,2-2.9,1.7-4.6c-10.1-6.5-22.7-9-35.3-6.1c-24.8,5.8-40.3,30.6-34.5,55.4
		c1.5,6.5,4.3,12.3,8.1,17.3l0,0l53.9,73.5l0,0c3.6,5.4,10.3,8.3,17,6.7c8.7-2,14-10.7,12-19.3c0,0,0,0,0,0l-5.1-21.9
		c-1.4-6,2.3-12.1,8.4-13.5c6-1.4,12.1,2.3,13.5,8.4l5.1,21.9l0,0c2,8.7,10.7,14,19.3,12C158.5,232.3,163.2,226.8,164.1,220.3z"/>
	<g>
		<path class="st0" d="M394.6,138.8c-1.3,0-9.8,6-9.5,6.1s16.7,16.6,16.7,16.6l7.5-3.4l13.6,16.7l18.7-12.9l-14.1-16.6L394.6,138.8z
			"/>
		<g>
			<path class="st8" d="M412.4,179.5l29.4-25.4c1.5-1.3,3.8-1.1,5.1,0.4l0,0c1.3,1.5,1.1,3.8-0.4,5.1l-29.4,25.4
				c-1.5,1.3-3.8,1.1-5.1-0.4l0,0C410.7,183.1,410.9,180.8,412.4,179.5z"/>
			<path class="st8" d="M386.9,170.6l49.8-43c1.5-1.3,3.8-1.1,5.1,0.4l0,0c1.3,1.5,1.1,3.8-0.4,5.1l-49.8,43
				c-1.5,1.3-3.8,1.1-5.1-0.4v0C385.3,174.2,385.4,171.9,386.9,170.6z"/>
			<g>
				
					<rect x="409.9" y="159.1" transform="matrix(0.757 -0.6534 0.6534 0.757 -8.5213 311.3525)" class="st9" width="9" height="16.1"/>
				
					<rect x="415.3" y="149.7" transform="matrix(0.757 -0.6534 0.6534 0.757 0.2476 316.1728)" class="st10" width="19.7" height="16.1"/>
			</g>
			<path class="st8" d="M309.3,34.7L283,4.2c-0.9-1.1-0.8-2.7,0.3-3.6l0,0c1.1-0.9,2.7-0.8,3.6,0.3l26.3,30.4L309.3,34.7z"/>
			<g>
				<path class="st9" d="M321.4,52.6l-10.2-11.8c-2.2-2.5-1.9-6.3,0.6-8.4l-6.8,5.9c-2.5,2.2-2.8,5.9-0.6,8.4l10.2,11.8L321.4,52.6z
					"/>
				<path class="st0" d="M311.3,40.9l10.2,11.8l15-12.9L326.2,28c-2.2-2.5-5.9-2.8-8.4-0.6l-5.9,5.1
					C309.4,34.6,309.1,38.4,311.3,40.9z"/>
				<path class="st10" d="M311.3,40.9l10.2,11.8l15-12.9L326.2,28c-2.2-2.5-5.9-2.8-8.4-0.6l-5.9,5.1
					C309.4,34.6,309.1,38.4,311.3,40.9z"/>
			</g>
			<g>
				
					<rect x="358.9" y="80.7" transform="matrix(0.757 -0.6534 0.6534 0.757 5.8291 270.1109)" class="st9" width="14.4" height="93"/>
				<path class="st11" d="M341.1,87.3l-26.5-30.7c-3.7-4.3-3.2-10.8,1.1-14.5l-10.9,9.4c-4.3,3.7-4.8,10.2-1.1,14.5l26.5,30.7
					L341.1,87.3z"/>
				
					<rect x="366.5" y="62.7" transform="matrix(0.757 -0.6534 0.6534 0.757 22.6365 279.3503)" class="st10" width="40.7" height="93"/>
				<path class="st12" d="M314.6,56.6l26.5,30.7l30.8-26.6l-26.5-30.7c-3.7-4.3-10.2-4.8-14.5-1.1l-15.2,13.1
					C311.4,45.8,310.9,52.3,314.6,56.6z"/>
			</g>
		</g>
	</g>
	<g>
		<path class="st13" d="M349.8,417.8H157.6c-7.7,0-14-6.3-14-14V120.4c0-7.7,6.3-14,14-14h192.2c7.7,0,14,6.3,14,14v283.4
			C363.8,411.5,357.5,417.8,349.8,417.8z"/>
		<rect x="164.4" y="125.1" class="st7" width="181" height="273.7"/>
		<g>
			<g>
				<path class="st14" d="M138,388c-2.2,2.8-4,5.9-5.4,9.3c-5-5.1-11.4-8.9-18.9-10.6c-2.8-0.6-5.6-0.9-8.4-0.9
					c-4.6,0-9.1,0.8-13.2,2.4c0.2-3.7-0.1-7.3-0.9-10.8c7.8-2.4,16.3-2.8,24.8-0.9C124.5,378.5,132,382.5,138,388z"/>
				<circle class="st15" cx="167.8" cy="411.6" r="38"/>
				<path class="st14" d="M64.9,338.7c-26.1-5.9-52,10.5-57.9,36.6s10.5,52,36.6,57.9s52-10.5,57.9-36.6
					C107.4,370.5,91,344.6,64.9,338.7z M91.3,394.3c-4.6,20.5-24.9,33.3-45.4,28.7c-20.5-4.6-33.3-24.9-28.7-45.4
					c4.6-20.5,24.9-33.3,45.4-28.7C83,353.6,95.9,373.9,91.3,394.3z"/>
				<path class="st14" d="M178.4,364.3c-26.1-5.9-52,10.5-57.9,36.6s10.5,52,36.6,57.9c26.1,5.9,52-10.5,57.9-36.6
					C220.9,396.1,204.5,370.2,178.4,364.3z M204.8,419.9c-4.6,20.5-24.9,33.3-45.4,28.7c-20.5-4.6-33.3-24.9-28.7-45.4
					c4.6-20.5,24.9-33.3,45.4-28.7C196.6,379.1,209.4,399.5,204.8,419.9z"/>
				<path class="st14" d="M11.5,371l-5.1-1.2c-2.8-0.6-5.6,1.1-6.3,4l0,0c-0.6,2.8,1.1,5.6,4,6.3l5.1,1.2L11.5,371z"/>
				<path class="st14" d="M211.7,426l5.1,1.2c2.8,0.6,5.6-1.1,6.3-4l0,0c0.6-2.8-1.1-5.6-4-6.3l-5.1-1.2L211.7,426z"/>
			</g>
			<circle class="st15" cx="54.2" cy="386" r="38"/>
		</g>
		<path class="st16" d="M285.7,110c-2.3-9.7-9.1-18.3-19.3-22.5c-14.9-6.2-32.3-0.4-40.5,13.5c-1.7,2.9-2.9,5.9-3.6,8.9
			c-1.1,4.4-5,7.6-9.6,7.6H193v30.9h120.6v-30.9h-18.2C290.8,117.5,286.8,114.4,285.7,110"/>
		<circle class="st17" cx="254" cy="113.7" r="13.7"/>
	</g>
	<path id="d_1_" class="st18" d="M264.7,197.5v39.8c-5.9-2.7-12.5-4.2-19.4-4.2c-25.8,0-46.8,21.1-46.8,46.9
		c0,25.8,21,46.8,46.8,46.8h0.1c6.8,0,13.3-1.5,19.3-4.2v3.1h32.5V197.5H264.7z M245.4,326L245.4,326L245.4,326L245.4,326z"/>
	<path id="Hjerte_1_" class="st7" d="M247.8,298c-2.4-4.2-9.8-8.7-9.8-8.7c-13.4-7.3-12.4-15.8-12.4-15.8
		c0.8-12.2,11.4-11.9,11.4-11.9c7.3,0,10.7,6,10.7,6h0.2c0,0,3.4-6,10.7-6c0,0,10.5-0.4,11.4,11.8c0,0,1.1,8.5-12.4,15.8
		C257.6,289.3,250.2,293.8,247.8,298"/>
	<path class="st1" d="M375.8,380.4l-25.4-12.7c-8.8-4.4-12.4-15.1-8-23.8c4.4-8.8,15.1-12.4,23.8-8l23.2,11.6l1.5,5.5"/>
</g>
</svg>
